<svg id="home" width="34" height="34" version="1.1" viewBox="0 0 34 34" xml:space="preserve" xmlns="http://www.w3.org/2000/svg">
        <g stroke="#232323" stroke-width=".5">
          <path d="m3.6974 7.0342 13.311-6.6568 13.311 6.6568 3.319 14.974-8.3149 11.654h-16.646l-8.3149-11.654z" fill="#ffc000"/>
          <path d="m18.741 6.1796c0.9038 0.13149 1.7749 0.36144 2.5963 0.6901l1.6108-1.627 2.0209 1.1668-0.6078 2.219c0.7066 0.54252 1.3474 1.1837 1.8899 1.8903l2.2181-0.60821 1.167 2.0218-1.6267 1.6109c0.3285 0.8218 0.5586 1.693 0.69 2.597l2.2185 0.5755v2.3339l-2.2185 0.5756c-0.1314 0.9038-0.3615 1.7749-0.69 2.597l1.6267 1.6108-1.167 2.0219-2.2181-0.6083c-0.5425 0.7068-1.1833 1.3479-1.8899 1.8905l0.6078 2.219-2.0209 1.1668-1.6108-1.6271c-0.8214 0.3286-1.6925 0.5587-2.5963 0.6901l-0.5751 2.219h-2.3334l-0.5751-2.219c-0.9038-0.1314-1.7748-0.3615-2.5963-0.6901l-1.6104 1.6271-2.0212-1.1668 0.60777-2.219c-0.70657-0.5426-1.3474-1.1837-1.8894-1.8905l-2.2185 0.6083-1.1667-2.0219 1.6268-1.6108c-0.32869-0.822-0.55893-1.6931-0.69038-2.597l-2.2185-0.5756v-2.3339l2.2185-0.5755c0.13145-0.9039 0.36169-1.7751 0.69038-2.597l-1.6268-1.6109 1.1667-2.0218 2.2185 0.60821c0.54201-0.70658 1.1828-1.3478 1.8894-1.8903l-0.60777-2.219 2.0212-1.1668 1.6104 1.627c0.8215-0.32866 1.6926-0.55861 2.5963-0.6901l0.5751-2.219h2.3334zm-7.9863 11.703c0 3.4519 2.7935 6.2461 6.2446 6.2461 3.4508 0 6.2446-2.7942 6.2446-6.2461 0-3.4514-2.7938-6.2461-6.2446-6.2461-3.4509 0-6.2446 2.7944-6.2446 6.2461z" fill="#ff0"/>
          <path d="m16.213 19.06c0 0.2303-0.0327 0.444-0.1315 0.6247-0.0822 0.1972-0.2137 0.3614-0.4109 0.5094-0.1807 0.1315-0.4105 0.2468-0.69 0.3287-0.2794 0.0658-0.6243 0.1154-1.0026 0.1154-0.6735 0-1.1993-0.1154-1.5772-0.3618-0.3779-0.2303-0.6247-0.5751-0.7231-1.0192l0.7065-0.148c0.0327 0.148 0.0984 0.2795 0.1642 0.3948 0.0823 0.115 0.181 0.2134 0.3125 0.2957 0.1315 0.0822 0.2791 0.148 0.4763 0.1972 0.1811 0.033 0.4109 0.0657 0.6738 0.0657 0.2138 0 0.411-0.0165 0.5917-0.0657 0.1807-0.0327 0.3452-0.0822 0.4763-0.1641 0.1315-0.0824 0.2303-0.1811 0.296-0.2961 0.0823-0.1314 0.1149-0.2629 0.1149-0.4436 0-0.1645-0.0326-0.3126-0.1149-0.4275-0.0823-0.115-0.1972-0.1973-0.3452-0.2795-0.1476-0.0657-0.3286-0.1315-0.5259-0.1807-0.1972-0.0492-0.4271-0.0988-0.6735-0.148-0.148-0.0327-0.2959-0.0823-0.4602-0.1149-0.148-0.0332-0.296-0.0823-0.4436-0.1481-0.1315-0.0492-0.2629-0.1149-0.3782-0.1807-0.1315-0.0822-0.23-0.1645-0.3284-0.2794-0.0822-0.0989-0.1645-0.2138-0.2137-0.3618-0.0492-0.1315-0.0822-0.2957-0.0822-0.4767 0-0.2465 0.0657-0.4767 0.1644-0.6574 0.0985-0.1807 0.2465-0.3287 0.4272-0.4437 0.1972-0.1315 0.4109-0.2137 0.6573-0.263 0.2465-0.0495 0.5259-0.0822 0.8216-0.0822 0.3287 0 0.6246 0.0327 0.8546 0.0822 0.2463 0.0493 0.4435 0.1315 0.6081 0.23 0.1641 0.1149 0.2956 0.2302 0.3943 0.3944 0.0985 0.148 0.1807 0.3287 0.2465 0.5425l-0.7231 0.1314c-0.0493-0.1314-0.0988-0.2464-0.1645-0.3614-0.0658-0.0987-0.1642-0.181-0.2626-0.2467-0.1153-0.082-0.2467-0.1316-0.4109-0.1642-0.1481-0.033-0.3452-0.0492-0.559-0.0492-0.2464 0-0.4597 0.0162-0.6243 0.0658-0.1807 0.0491-0.3121 0.0983-0.4109 0.1806-0.1149 0.0822-0.1807 0.1642-0.2299 0.2629-0.0492 0.1151-0.0658 0.2303-0.0658 0.3453 0 0.1641 0.0492 0.2956 0.115 0.3944 0.0823 0.115 0.1972 0.1972 0.3287 0.263 0.148 0.0657 0.3121 0.1315 0.4931 0.1807 0.1808 0.0331 0.3779 0.0823 0.5751 0.1315 0.1643 0.033 0.3287 0.0823 0.4929 0.1153 0.1807 0.0492 0.3287 0.0819 0.4767 0.1476 0.1641 0.0496 0.2956 0.1154 0.427 0.1976 0.1316 0.0657 0.2465 0.1642 0.3453 0.263 0.0984 0.1149 0.1806 0.2464 0.2299 0.3944 0.0657 0.1315 0.0822 0.3122 0.0822 0.5094zm4.8641 1.4959-0.6244-1.5781h-2.4648l-0.6247 1.5781h-0.7724l2.2185-5.4241h0.8381l2.1854 5.4241zm-1.5446-3.9448c-0.0331-0.1153-0.0823-0.2137-0.115-0.3125-0.033-0.1149-0.0657-0.2137-0.0988-0.2957-0.0165-0.0822-0.0492-0.148-0.0657-0.2137l-0.0327-0.0988-0.0331 0.0988c-0.0164 0.0657-0.0492 0.1315-0.0822 0.2299-0.0162 0.0823-0.0492 0.181-0.0984 0.2795-0.0327 0.1153-0.0658 0.2137-0.115 0.3125l-0.6904 1.7916h2.0378z" fill="#232323"/>
        </g>
      </svg>
