<?xml version="1.0" encoding="UTF-8"?>
<svg width="732.77pt" height="562.86pt" version="1.1" viewBox="-210 -54.6 732.77 562.86" xmlns="http://www.w3.org/2000/svg" xmlns:xlink="http://www.w3.org/1999/xlink">
 <rect x="-210" y="-54.6" width="732.77" height="562.86" fill="#f3f3f3"/>
 <g id="tte" class="node agents" transform="translate(12.466 357.69)">
  <title>Scott H.</title>
  <polygon points="207.9 -241.22 153.9 -241.22 153.9 -205.22 207.9 -205.22" fill="none" stroke="#098" stroke-width="2"/>
  <text x="180.89999" y="-227.42" font-family="Arial" font-size="14px" text-anchor="middle">Scott</text>
  <text x="180.89999" y="-210.62" font-family="Arial" font-size="14px" text-anchor="middle">H.</text>
 </g>
 <g id="x4e" class="node processes zoomnotable notenotattached" transform="translate(12.466 357.69)">
  <title>Git</title>
  <g id="a_x4e">
   <a xlink:title=" ">
    <path d="m238.76-139.5h-33.22c-6 0-12 6-12 12v12c0 6 6 12 12 12h33.22c6 0 12-6 12-12v-12c0-6-6-12-12-12" fill="none" stroke="#3be" stroke-width="2"/>
    <text x="222.14999" y="-125.7" font-family="Arial" font-size="14px" text-anchor="middle">0.1.5.2</text>
    <text x="222.14999" y="-108.9" font-family="Arial" font-size="14px" text-anchor="middle">Git</text>
   </a>
  </g>
  <line x1="193.54" x2="250.76" y1="-122.5" y2="-122.5" stroke="#3be" stroke-dasharray="3, 3" stroke-width="2px"/>
 </g>
 <g class="edge" transform="translate(12.466 357.69)">
  <title>Scott H.-&gt;Git</title>
  <g stroke="#bbb">
   <path d="m191.4-197.32c6.14 15.12 13.85 34.15 20.02 49.37" fill="none"/>
   <polygon points="189.78 -201.32 194.48 -198.13 188.93 -203.44 188.64 -195.77 189.78 -201.32 191.56 -196.95" fill="#bbb"/>
   <polygon points="213.18 -143.63 208.49 -146.82 214.03 -141.52 214.32 -149.19 213.18 -143.63 211.4 -148" fill="#bbb"/>
  </g>
 </g>
 <g id="ntq" class="node processes zoomnotable notenotattached" transform="translate(12.466 357.69)">
  <title>Node</title>
  <g id="a_ntq">
   <a xlink:title=" ">
    <path d="m73.21-229.54h-33.22c-6 0-12 6-12 12v12c0 6 6 12 12 12h33.22c6 0 12-6 12-12v-12c0-6-6-12-12-12" fill="none" stroke="#3be" stroke-width="2"/>
    <text x="56.599998" y="-215.74001" font-family="Arial" font-size="14px" text-anchor="middle">0.1.5.4</text>
    <text x="56.599998" y="-198.94" font-family="Arial" font-size="14px" text-anchor="middle">Node</text>
   </a>
  </g>
  <line x1="27.99" x2="85.21" y1="-212.54" y2="-212.54" stroke="#3be" stroke-dasharray="3, 3" stroke-width="2px"/>
 </g>
 <g class="edge" transform="translate(12.466 357.69)">
  <title>Scott H.-&gt;Node</title>
  <g stroke="#bbb">
   <path d="m145-219.85c-15.9 1.49-34.61 3.25-50.71 4.77" fill="none"/>
   <polygon points="149.52 -220.27 145.12 -216.7 151.79 -220.49 144.53 -222.97 149.52 -220.27 144.82 -219.83" fill="#bbb"/>
   <polygon points="89.62 -214.64 94.02 -218.22 87.35 -214.43 94.61 -211.95 89.62 -214.64 94.32 -215.09" fill="#bbb"/>
  </g>
 </g>
 <g id="ygg" class="node processes zoomnotable notenotattached" transform="translate(12.466 357.69)">
  <title>Deno</title>
  <g id="a_ygg">
   <a xlink:title=" ">
    <path d="m91.86-374.81h-33.21c-6 0-12 6-12 12v12c0 6 6 12 12 12h33.21c6 0 12-6 12-12v-12c0-6-6-12-12-12" fill="none" stroke="#3be" stroke-width="2"/>
    <text x="75.260002" y="-361.01001" font-family="Arial" font-size="14px" text-anchor="middle">0.1.5.5</text>
    <text x="75.260002" y="-344.20999" font-family="Arial" font-size="14px" text-anchor="middle">Deno</text>
   </a>
  </g>
  <line x1="46.65" x2="103.86" y1="-357.81" y2="-357.81" stroke="#3be" stroke-dasharray="3, 3" stroke-width="2px"/>
 </g>
 <g class="edge" transform="translate(12.466 357.69)">
  <title>Scott H.-&gt;Deno</title>
  <g stroke="#bbb">
   <path d="m161-248.39c-18.85-23.83-47.01-59.43-65.85-83.27" fill="none"/>
   <polygon points="163.82 -244.83 158.42 -246.57 165.23 -243.04 163.36 -250.48 163.82 -244.83 160.89 -248.53" fill="#bbb"/>
   <polygon points="92.26 -335.3 97.66 -333.56 90.85 -337.09 92.72 -329.65 92.26 -335.3 95.19 -331.6" fill="#bbb"/>
  </g>
 </g>
 <g id="n7a" class="node processes zoomnotable notenotattached" transform="translate(12.466 357.69)">
  <title>Upload</title>
  <g id="a_n7a">
   <a xlink:title=" ">
    <path d="m448.98-257.52h-34.77c-6 0-12 6-12 12v12c0 6 6 12 12 12h34.77c6 0 12-6 12-12v-12c0-6-6-12-12-12" fill="none" stroke="#3be" stroke-width="2"/>
    <text x="431.60001" y="-243.72" font-family="Arial" font-size="14px" text-anchor="middle">0.1.5.1</text>
    <text x="431.60001" y="-226.92" font-family="Arial" font-size="14px" text-anchor="middle">Upload</text>
   </a>
  </g>
  <line x1="402.21" x2="460.98" y1="-240.52" y2="-240.52" stroke="#3be" stroke-dasharray="3, 3" stroke-width="2px"/>
 </g>
 <g class="edge" transform="translate(12.466 357.69)">
  <title>Scott H.-&gt;Upload</title>
  <g stroke="#bbb">
   <path d="m216.58-225.54c46.84-3.05 128.71-8.37 176.78-11.5" fill="none"/>
   <polygon points="212.18 -225.26 216.69 -228.71 209.9 -225.11 217.09 -222.42 212.18 -225.26 216.89 -225.56" fill="#bbb"/>
   <polygon points="397.86 -237.33 393.35 -233.88 400.13 -237.48 392.94 -240.17 397.86 -237.33 393.15 -237.02" fill="#bbb"/>
  </g>
 </g>
 <g class="edge" transform="translate(12.466 357.69)">
  <title>Scott H.-&gt;Upload</title>
  <path d="m208.69-225.03c44.92-2.92 133.6-8.69 184.52-12" fill="none" stroke="#bbb"/>
  <polygon points="397.86 -237.33 393.35 -233.88 400.13 -237.48 392.94 -240.17 397.86 -237.33 393.15 -237.02" fill="#bbb" stroke="#bbb"/>
 </g>
 <g id="qyj" class="node has_subclass processes zoomnotable noteattached" transform="translate(12.466 357.69)">
  <title>Local NGINX</title>
  <g id="a_qyj">
   <a xlink:href="#todo" xlink:title=" Add to sites-enabled">
    <path d="m265.77-394.72h-34.74c-6 0-12 6-12 12v26.4c0 6 6 12 12 12h34.74c6 0 12-6 12-12v-26.4c0-6-6-12-12-12" fill="none" stroke="#3be" stroke-width="2"/>
    <g font-family="Arial" font-size="14px" text-anchor="middle">
     <text x="248.39999" y="-382.12">0.1.5.6</text>
     <text x="248.39999" y="-365.32001">Local</text>
     <text x="248.39999" y="-348.51999">NGINX</text>
    </g>
   </a>
  </g>
  <a xlink:href="http://localhost:4016" xlink:title="http://localhost:4016">
   <text x="211.03" y="-340.32001" font-size="14px"></text>
  </a>
  <line x1="219.03" x2="277.77" y1="-378.03" y2="-378.03" stroke="#3be" stroke-dasharray="3, 3" stroke-width="2px"/>
  <circle cx="276.77" cy="-394.03" r="3" fill="#e73" stroke="#e73"/>
  <circle cx="276.77" cy="-345.32" r="3" fill="#07b" stroke="#07b"/>
 </g>
 <g class="edge" transform="translate(12.466 357.69)">
  <title>Scott H.-&gt;Local NGINX</title>
  <g stroke="#bbb">
   <path d="m193.01-249.47c11.2-24.27 27.9-60.45 40.03-86.75" fill="none"/>
   <polygon points="191.05 -245.23 190.17 -250.83 190.1 -243.16 195.89 -248.19 191.05 -245.23 193.03 -249.51" fill="#bbb"/>
   <polygon points="234.86 -340.18 235.75 -334.57 235.82 -342.25 230.03 -337.21 234.86 -340.18 232.89 -335.89" fill="#bbb"/>
  </g>
 </g>
 <g id="ihq" class="node datastores" transform="translate(12.466 357.69)">
  <title>Codeberg</title>
  <polygon points="0 -39.53 0 -75.53 108.19 -75.53 108.19 -39.53" fill="none" stroke="#c31" stroke-width="2"/>
  <text x="16.15" y="-53.330002" font-family="Arial" font-size="14px" text-anchor="middle">R4</text>
  <polyline points="32.3 -39.53 32.3 -75.53" fill="none" stroke="#c31" stroke-dasharray="3, 3" stroke-width="2"/>
  <text x="70.239998" y="-53.330002" font-family="Arial" font-size="14px" text-anchor="middle">Codeberg</text>
  <a xlink:href="https://codeberg.org/acodrst/noidentity.dev" xlink:title="https://codeberg.org/acodrst/noidentity.dev">
   <text x="-8" y="-35.529999" font-size="14px"></text>
  </a>
 </g>
 <g class="edge" transform="translate(12.466 357.69)">
  <title>Git-&gt;Codeberg</title>
  <path d="m192.88-110.36c-22.44 8.54-54.1 20.59-81.52 31.03" fill="none" stroke="#bbb"/>
  <polygon points="107.03 -77.68 110.32 -82.3 104.89 -76.87 112.56 -76.42 107.03 -77.68 111.44 -79.36" fill="#bbb" stroke="#bbb"/>
 </g>
 <g id="alr" class="node datastores" transform="translate(12.466 357.69)">
  <title>SourceForge</title>
  <polygon points="276.51 -5.58 276.51 -41.58 404.13 -41.58 404.13 -5.58" fill="none" stroke="#c31" stroke-width="2"/>
  <text x="292.64999" y="-19.379999" font-family="Arial" font-size="14px" text-anchor="middle">R5</text>
  <polyline points="308.8 -5.58 308.8 -41.58" fill="none" stroke="#c31" stroke-dasharray="3, 3" stroke-width="2"/>
  <text x="356.47" y="-19.379999" font-family="Arial" font-size="14px" text-anchor="middle">SourceForge</text>
  <a xlink:href="https://sourceforge.net/projects/noidentity.dev" xlink:title="https://sourceforge.net/projects/noidentity.dev">
   <text x="268.51001" y="-1.5800018" font-size="14px"></text>
  </a>
 </g>
 <g class="edge" transform="translate(12.466 357.69)">
  <title>Git-&gt;SourceForge</title>
  <path d="m244.93-102.62c18.97 15.71 46.08 38.18 66.55 55.15" fill="none" stroke="#bbb"/>
  <polygon points="314.91 -44.63 309.27 -45.22 316.67 -43.18 313.29 -50.07 314.91 -44.63 311.28 -47.64" fill="#bbb" stroke="#bbb"/>
 </g>
 <g id="plc" class="node datastores" transform="translate(12.466 357.69)">
  <title>GitHub</title>
  <polygon points="140.34 -0.5 140.34 -36.5 230.61 -36.5 230.61 -0.5" fill="none" stroke="#c31" stroke-width="2"/>
  <text x="156.49001" y="-14.3" font-family="Arial" font-size="14px" text-anchor="middle">R3</text>
  <polyline points="172.64 -0.5 172.64 -36.5" fill="none" stroke="#c31" stroke-dasharray="3, 3" stroke-width="2"/>
  <text x="201.62" y="-14.3" font-family="Arial" font-size="14px" text-anchor="middle">GitHub</text>
  <a xlink:href="https://github.com/noidentity.dev" xlink:title="https://github.com/noidentity.dev">
   <text x="132.34" y="3.5" font-size="14px"></text>
  </a>
 </g>
 <g class="edge" transform="translate(12.466 357.69)">
  <title>Git-&gt;GitHub</title>
  <path d="m215.42-102.61c-5.79 16.26-14.2 39.89-20.64 57.97" fill="none" stroke="#bbb"/>
  <polygon points="193.33 -40.57 191.95 -46.07 192.57 -38.42 197.88 -43.96 193.33 -40.57 194.92 -45.01" fill="#bbb" stroke="#bbb"/>
 </g>
 <g id="i7b" class="node processes zoomnotable notenotattached" transform="translate(12.466 357.69)">
  <title>WebDAV</title>
  <g id="a_i7b">
   <a xlink:title=" ">
    <path d="m360.3-175.37h-47.97c-6 0-12 6-12 12v12c0 6 6 12 12 12h47.97c6 0 12-6 12-12v-12c0-6-6-12-12-12" fill="none" stroke="#3be" stroke-width="2"/>
    <text x="336.32001" y="-161.57001" font-family="Arial" font-size="14px" text-anchor="middle">0.1.5.3</text>
    <text x="336.32001" y="-144.77" font-family="Arial" font-size="14px" text-anchor="middle">WebDAV</text>
   </a>
  </g>
  <line x1="300.33" x2="372.3" y1="-158.37" y2="-158.37" stroke="#3be" stroke-dasharray="3, 3" stroke-width="2px"/>
 </g>
 <g class="edge" transform="translate(12.466 357.69)">
  <title>WebDAV-&gt;Scott H.</title>
  <g stroke="#bbb">
   <path d="m292.11-176.1c-24.1-10.21-53.51-22.68-76.04-32.22" fill="none"/>
   <polygon points="296.26 -174.34 290.69 -173.28 298.36 -173.45 293.15 -179.08 296.26 -174.34 291.92 -176.18" fill="#bbb"/>
   <polygon points="211.94 -210.07 217.51 -211.13 209.84 -210.96 215.06 -205.33 211.94 -210.07 216.29 -208.23" fill="#bbb"/>
  </g>
 </g>
 <g id="zbr" class="node processes zoomnotable notenotattached" transform="translate(12.466 357.69)">
  <title>NID</title>
  <g id="a_zbr">
   <a xlink:title=" ">
    <path d="m482.51-96.77h-33.22c-6 0-12 6-12 12v12c0 6 6 12 12 12h33.22c6 0 12-6 12-12v-12c0-6-6-12-12-12" fill="none" stroke="#3be" stroke-width="2"/>
    <text x="465.89999" y="-82.970001" font-family="Arial" font-size="14px" text-anchor="middle">0.1.5.7</text>
    <text x="465.89999" y="-66.169998" font-family="Arial" font-size="14px" text-anchor="middle">NID</text>
   </a>
  </g>
  <a xlink:href="https://noidentity.dev" xlink:title="https://noidentity.dev">
   <text x="429.29001" y="-56.77" font-size="14px"></text>
  </a>
  <line x1="437.29" x2="494.51" y1="-79.77" y2="-79.77" stroke="#3be" stroke-dasharray="3, 3" stroke-width="2px"/>
 </g>
 <g class="edge" transform="translate(12.466 357.69)">
  <title>NID-&gt;WebDAV</title>
  <path d="m429.5-100.85c-19.55-11.86-43.41-26.33-62.09-37.66" fill="none" stroke="#bbb"/>
  <polygon points="433.5 -98.42 427.84 -98.18 435.45 -97.24 431.1 -103.56 433.5 -98.42 429.47 -100.87" fill="#bbb" stroke="#bbb"/>
 </g>
 <g class="node datastores" transform="translate(12.466 357.69)">
  <title>site/nid</title>
  <polygon points="238.6 -240.93 238.6 -276.93 329.65 -276.93 329.65 -240.93" fill="none" stroke="#c31" stroke-width="2"/>
  <text x="254.74001" y="-254.73" font-family="Arial" font-size="14px" text-anchor="middle">R1</text>
  <polyline points="270.89 -240.93 270.89 -276.93" fill="none" stroke="#c31" stroke-dasharray="3, 3" stroke-width="2"/>
  <text x="300.26999" y="-254.73" font-family="Arial" font-size="14px" text-anchor="middle">site/nid</text>
 </g>
 <g class="edge" transform="translate(12.466 357.69)">
  <title>site/nid-&gt;Git</title>
  <g stroke="#bbb">
   <path d="m272.38-232.89c-11.08 24.56-27.58 61.15-38.61 85.62" fill="none"/>
   <polygon points="274.2 -236.92 275.13 -231.33 275.14 -239 269.39 -233.92 274.2 -236.92 272.26 -232.62" fill="#bbb"/>
   <polygon points="231.97 -143.29 231.04 -148.88 231.04 -141.21 236.78 -146.29 231.97 -143.29 233.91 -147.59" fill="#bbb"/>
  </g>
 </g>
 <g class="edge" transform="translate(12.466 357.69)">
  <title>site/nid-&gt;Node</title>
  <g stroke="#bbb">
   <path d="m229.68-257.16c-25.3 1.68-55.64 4.91-82.38 11.14-18.21 4.24-37.68 11.28-53.9 17.9" fill="none"/>
   <polygon points="234.21 -257.44 229.7 -254.01 236.49 -257.58 229.31 -260.3 234.21 -257.44 229.5 -257.15" fill="#bbb"/>
   <polygon points="89.43 -226.46 92.58 -231.18 87.32 -225.58 95 -225.37 89.43 -226.46 93.79 -228.28" fill="#bbb"/>
  </g>
 </g>
 <g class="edge" transform="translate(12.466 357.69)">
  <title>site/nid-&gt;Deno</title>
  <g stroke="#bbb">
   <path d="m236.47-281.26c-37.89-17.76-90.12-42.23-124.73-58.45" fill="none"/>
   <polygon points="240.68 -279.29 235.07 -278.44 242.75 -278.32 237.75 -284.14 240.68 -279.29 236.41 -281.29" fill="#bbb"/>
   <polygon points="107.8 -341.56 113.41 -342.41 105.73 -342.53 110.73 -336.7 107.8 -341.56 112.07 -339.56" fill="#bbb"/>
  </g>
 </g>
 <g class="edge" transform="translate(12.466 357.69)">
  <title>site/nid-&gt;Upload</title>
  <path d="m330.38-252.85c20.25 2.67 43.73 5.76 62.97 8.29" fill="none" stroke="#bbb"/>
  <polygon points="397.85 -243.96 392.76 -241.46 400.11 -243.67 393.58 -247.7 397.85 -243.96 393.17 -244.58" fill="#bbb" stroke="#bbb"/>
 </g>
 <g class="edge" transform="translate(12.466 357.69)">
  <title>site/nid-&gt;Local NGINX</title>
  <path d="m278.06-277.69c-5.14-15.93-12.65-39.16-18.82-58.28" fill="none" stroke="#bbb"/>
  <polygon points="257.85 -340.28 262.3 -336.75 257.15 -342.45 256.3 -334.82 257.85 -340.28 259.3 -335.79" fill="#bbb" stroke="#bbb"/>
 </g>
 <g class="edge" transform="translate(12.466 357.69)">
  <title>site/nid-&gt;WebDAV</title>
  <path d="m293.7-240.31c8.19 15.94 20.06 39.05 29.2 56.83" fill="none" stroke="#bbb"/>
  <polygon points="325.03 -179.34 320.07 -182.09 326.07 -177.31 325.67 -184.97 325.03 -179.34 322.87 -183.53" fill="#bbb" stroke="#bbb"/>
 </g>
 <g id="l3x" class="node datastores" transform="translate(12.466 357.69)">
  <title>Permanent</title>
  <polygon points="377.49 -344.71 377.49 -380.71 492.67 -380.71 492.67 -344.71" fill="none" stroke="#c31" stroke-width="2"/>
  <text x="393.64001" y="-358.51001" font-family="Arial" font-size="14px" text-anchor="middle">R2</text>
  <polyline points="409.79 -344.71 409.79 -380.71" fill="none" stroke="#c31" stroke-dasharray="3, 3" stroke-width="2"/>
  <text x="451.23001" y="-358.51001" font-family="Arial" font-size="14px" text-anchor="middle">Permanent</text>
  <a xlink:href="https://www.permanent.org/p/archive/04sh-0000" xlink:title="https://www.permanent.org/p/archive/04sh-0000">
   <text x="369.48999" y="-340.70999" font-size="14px"></text>
  </a>
 </g>
 <g class="edge" transform="translate(12.466 357.69)">
  <title>Permanent-&gt;Upload</title>
  <path d="m434.31-335.58c-0.66 23.42-1.6 56.66-2.18 77.26" fill="none" stroke="#bbb"/>
  <polygon points="434.44 -340.23 437.46 -335.43 434.51 -342.51 431.16 -335.6 434.44 -340.23 434.31 -335.51" fill="#bbb" stroke="#bbb"/>
 </g>
 <g transform="translate(4.5256 -3.7146)" font-family="Arial, Helvetica, sans-serif" font-size="14px">
  <text x="-39.403332" y="-36.400002" dy="2" font-weight="900">Streaming Logical Map</text>
  <text x="-207" y="484.79999" dy="2">Rather than identity, this site leads with a combined material and data flow logical map, using MQTT to stream</text>
  <text x="-207" y="503" dy="2">collaborative updates</text>
  <a xlink:href="#Top" xlink:title="Top">
   <text x="-207" y="18.200001">Top</text>
  </a>
  <a xlink:href="#Top.Demonstrations" xlink:title="Demonstrations">
   <text x="-207" y="36.400002">⇥ Demonstrations</text>
  </a>
  <a xlink:href="#Top.Demonstrations.StreamingLogicalMap" xlink:title="StreamingLogicalMap">
   <text x="-207" y="54.599998">⇥ ⇥ StreamingLogicalMap</text>
  </a>
 </g>
</svg>
