<?xml version="1.0" encoding="UTF-8" standalone="no"?>
<svg
   sodipodi:docname="top.svg"
   id="svg546"
   version="1.1"
   viewBox="-42 -54.6 540.57227 484.42759"
   height="484.42758pt"
   width="540.57227pt"
   inkscape:version="1.2.2 (b0a8486541, 2022-12-01)"
   xmlns:inkscape="http://www.inkscape.org/namespaces/inkscape"
   xmlns:sodipodi="http://sodipodi.sourceforge.net/DTD/sodipodi-0.dtd"
   xmlns:xlink="http://www.w3.org/1999/xlink"
   xmlns="http://www.w3.org/2000/svg"
   xmlns:svg="http://www.w3.org/2000/svg">
  <defs
     id="defs550" />
  <sodipodi:namedview
     id="namedview548"
     pagecolor="#ffffff"
     bordercolor="#000000"
     borderopacity="1"
     inkscape:showpageshadow="2"
     inkscape:pageopacity="0"
     inkscape:pagecheckerboard="0"
     inkscape:deskcolor="#d1d1d1"
     showgrid="false"
     inkscape:document-units="pt"
     inkscape:zoom="1.0419514"
     inkscape:cx="299.91802"
     inkscape:cy="206.82347"
     inkscape:window-width="1280"
     inkscape:window-height="661"
     inkscape:window-x="390"
     inkscape:window-y="129"
     inkscape:window-maximized="0"
     inkscape:current-layer="g544"
     showborder="false" />
  <g
     id="g544"
     transform="translate(11.06794,-1557.7555)">
    <rect
       style="fill:#f3f3f3;fill-opacity:1;stroke-width:0.75"
       id="rect1522"
       width="540.57227"
       height="484.42758"
       x="-53.06794"
       y="1503.1555" />
    <polygon
       fill="#ffffff"
       stroke="none"
       points="-8.64,8.64 -8.64,-334.7 493.41,-334.7 493.41,8.64 "
       id="polygon383"
       transform="translate(-6.6110731,1885.8459)"
       style="fill:none" />
    <g
       id="y1p"
       class="node datastores"
       transform="translate(-6.6110731,1885.8459)">
      <title
         id="title385">Knowledge Management</title>
      <polygon
         fill="none"
         stroke="#cc3311"
         stroke-width="2"
         points="204.57,-233.08 204.57,-269.08 332.98,-269.08 332.98,-233.08 "
         id="polygon387" />
      <text
         text-anchor="middle"
         x="220.72"
         y="-246.88"
         font-family="Arial"
         font-size="14px"
         id="text389">R1</text>
      <polyline
         fill="none"
         stroke="#cc3311"
         stroke-width="2"
         points="236.87,-233.08 236.87,-269.08"
         stroke-dasharray="3, 3"
         id="polyline391" />
      <text
         text-anchor="middle"
         x="284.92999"
         y="-255.28"
         font-family="Arial"
         font-size="14px"
         id="text393">Knowledge</text>
      <text
         text-anchor="middle"
         x="284.92999"
         y="-238.48"
         font-family="Arial"
         font-size="14px"
         id="text395">Management</text>
    </g>
    <g
       id="tsq"
       class="node datastores"
       transform="translate(-6.6110731,1885.8459)">
      <title
         id="title398">Personal</title>
      <polygon
         fill="none"
         stroke="#cc3311"
         stroke-width="2"
         points="369.21,-28.68 369.21,-64.68 471.16,-64.68 471.16,-28.68 "
         id="polygon400" />
      <text
         text-anchor="middle"
         x="385.35999"
         y="-42.48"
         font-family="Arial"
         font-size="14px"
         id="text402">R2</text>
      <polyline
         fill="none"
         stroke="#cc3311"
         stroke-width="2"
         points="401.51,-28.68 401.51,-64.68"
         stroke-dasharray="3, 3"
         id="polyline404" />
      <text
         text-anchor="middle"
         x="436.32999"
         y="-42.48"
         font-family="Arial"
         font-size="14px"
         id="text406">Personal</text>
    </g>
    <g
       id="jm3"
       class="node datastores"
       transform="translate(-6.6110731,1885.8459)">
      <title
         id="title409">Operating Systems</title>
      <polygon
         fill="none"
         stroke="#cc3311"
         stroke-width="2"
         points="18.55,-0.5 18.55,-36.5 126.73,-36.5 126.73,-0.5 "
         id="polygon411" />
      <text
         text-anchor="middle"
         x="34.689999"
         y="-14.3"
         font-family="Arial"
         font-size="14px"
         id="text413">R3</text>
      <polyline
         fill="none"
         stroke="#cc3311"
         stroke-width="2"
         points="50.84,-0.5 50.84,-36.5"
         stroke-dasharray="3, 3"
         id="polyline415" />
      <text
         text-anchor="middle"
         x="88.779999"
         y="-22.700001"
         font-family="Arial"
         font-size="14px"
         id="text417">Operating</text>
      <text
         text-anchor="middle"
         x="88.779999"
         y="-5.9000001"
         font-family="Arial"
         font-size="14px"
         id="text419">Systems</text>
    </g>
    <g
       id="q34"
       class="node datastores"
       transform="translate(-6.6110731,1885.8459)">
      <title
         id="title422">Programming</title>
      <polygon
         fill="none"
         stroke="#cc3311"
         stroke-width="2"
         points="0,-155.97 0,-191.97 130.72,-191.97 130.72,-155.97 "
         id="polygon424" />
      <text
         text-anchor="middle"
         x="16.15"
         y="-169.77"
         font-family="Arial"
         font-size="14px"
         id="text426">R4</text>
      <polyline
         fill="none"
         stroke="#cc3311"
         stroke-width="2"
         points="32.3,-155.97 32.3,-191.97"
         stroke-dasharray="3, 3"
         id="polyline428" />
      <text
         text-anchor="middle"
         x="81.510002"
         y="-169.77"
         font-family="Arial"
         font-size="14px"
         id="text430">Programming</text>
    </g>
    <g
       id="s5g"
       class="node has_subclass processes zoomable notenotattached"
       transform="translate(-6.6110731,1885.8459)">
      <title
         id="title433">Demonstrations</title>
      <g
         id="a_s5g">
        <a
           xlink:href="#Top.Demonstrations"
           xlink:title=" "
           id="a441">
          <path
             fill="none"
             stroke="#33bbee"
             stroke-width="2"
             d="m 472.77,-283.82 c 0,0 -88.44,0 -88.44,0 -6,0 -12,6 -12,12 0,0 0,12 0,12 0,6 6,12 12,12 0,0 88.44,0 88.44,0 6,0 12,-6 12,-12 0,0 0,-12 0,-12 0,-6 -6,-12 -12,-12"
             id="path435" />
          <text
             text-anchor="middle"
             x="428.54999"
             y="-270.01999"
             font-family="Arial"
             font-size="14px"
             id="text437">0.1</text>
          <text
             text-anchor="middle"
             x="428.54999"
             y="-253.22"
             font-family="Arial"
             font-size="14px"
             id="text439">Demonstrations</text>
        </a>
      </g>
      <line
         x1="372.32999"
         y1="-266.82001"
         x2="484.76999"
         y2="-266.82001"
         stroke-dasharray="3, 3"
         stroke="#33bbee"
         stroke-width="2px"
         id="line444" />
      <circle
         cx="373.32999"
         cy="-282.82001"
         r="3"
         stroke="#ee3377"
         fill="#ee3377"
         id="circle446" />
      <circle
         cx="483.76999"
         cy="-248.82001"
         r="3"
         stroke="#0077bb"
         fill="#0077bb"
         id="circle448" />
    </g>
    <g
       id="edge1"
       class="edge"
       transform="translate(-6.6110731,1885.8459)">
      <title
         id="title451">Demonstrations-&gt;Knowledge Management</title>
      <path
         fill="none"
         stroke="#bbbbbb"
         d="m 363.61,-259.83 c -9.83,0.91 -19.97,1.85 -29.79,2.75"
         id="path453" />
      <polygon
         fill="#bbbbbb"
         stroke="#bbbbbb"
         points="368.29,-260.26 363.59,-259.82 368.29,-260.26 363.88,-256.69 370.56,-260.47 363.3,-262.96 "
         id="polygon455" />
    </g>
    <g
       id="ewj"
       class="node has_subclass processes zoomable noteattached"
       transform="translate(-6.6110731,1885.8459)">
      <title
         id="title458">Papers</title>
      <g
         id="a_ewj">
        <a
           xlink:href="#Top.Papers"
           xlink:title="Full papers "
           id="a466">
          <path
             fill="none"
             stroke="#33bbee"
             stroke-width="2"
             d="m 114.7,-326.06 c 0,0 -34.75,0 -34.75,0 -6,0 -12,6 -12,12 0,0 0,12 0,12 0,6 6,12 12,12 0,0 34.75,0 34.75,0 6,0 12,-6 12,-12 0,0 0,-12 0,-12 0,-6 -6,-12 -12,-12"
             id="path460" />
          <text
             text-anchor="middle"
             x="97.32"
             y="-312.26001"
             font-family="Arial"
             font-size="14px"
             id="text462">0.2</text>
          <text
             text-anchor="middle"
             x="97.32"
             y="-295.45999"
             font-family="Arial"
             font-size="14px"
             id="text464">Papers</text>
        </a>
      </g>
      <line
         x1="67.949997"
         y1="-309.06"
         x2="126.7"
         y2="-309.06"
         stroke-dasharray="3, 3"
         stroke="#33bbee"
         stroke-width="2px"
         id="line469" />
      <circle
         cx="68.949997"
         cy="-325.06"
         r="3"
         stroke="#ee3377"
         fill="#ee3377"
         id="circle471" />
      <circle
         cx="125.7"
         cy="-325.06"
         r="3"
         stroke="#ee7733"
         fill="#ee7733"
         id="circle473" />
      <circle
         cx="125.7"
         cy="-291.06"
         r="3"
         stroke="#0077bb"
         fill="#0077bb"
         id="circle475" />
    </g>
    <g
       id="edge2"
       class="edge"
       transform="translate(-6.6110731,1885.8459)">
      <title
         id="title478">Papers-&gt;Knowledge Management</title>
      <path
         fill="none"
         stroke="#bbbbbb"
         d="m 135.25,-295.46 c 22.47,7.47 51.38,17.08 76.55,25.45"
         id="path480" />
      <polygon
         fill="#bbbbbb"
         stroke="#bbbbbb"
         points="130.9,-296.9 135.38,-295.42 130.9,-296.9 136.37,-298.4 128.74,-297.62 134.39,-292.43 "
         id="polygon482" />
    </g>
    <g
       id="ssh"
       class="node has_subclass processes zoomable notenotattached"
       transform="translate(-6.6110731,1885.8459)">
      <title
         id="title485">Documentation</title>
      <g
         id="a_ssh">
        <a
           xlink:href="#Top.Documentation"
           xlink:title=" "
           id="a493">
          <path
             fill="none"
             stroke="#33bbee"
             stroke-width="2"
             d="m 288.38,-65.26 c 0,0 -84.57,0 -84.57,0 -6,0 -12,6 -12,12 0,0 0,12 0,12 0,6 6,12 12,12 0,0 84.57,0 84.57,0 6,0 12,-6 12,-12 0,0 0,-12 0,-12 0,-6 -6,-12 -12,-12"
             id="path487" />
          <text
             text-anchor="middle"
             x="246.09"
             y="-51.459999"
             font-family="Arial"
             font-size="14px"
             id="text489">0.3</text>
          <text
             text-anchor="middle"
             x="246.09"
             y="-34.66"
             font-family="Arial"
             font-size="14px"
             id="text491">Documentation</text>
        </a>
      </g>
      <line
         x1="191.81"
         y1="-48.260002"
         x2="300.38"
         y2="-48.260002"
         stroke-dasharray="3, 3"
         stroke="#33bbee"
         stroke-width="2px"
         id="line496" />
      <circle
         cx="192.81"
         cy="-64.260002"
         r="3"
         stroke="#ee3377"
         fill="#ee3377"
         id="circle498" />
      <circle
         cx="299.38"
         cy="-30.260002"
         r="3"
         stroke="#0077bb"
         fill="#0077bb"
         id="circle500" />
    </g>
    <g
       id="edge5"
       class="edge"
       transform="translate(-6.6110731,1885.8459)">
      <title
         id="title503">Documentation-&gt;Knowledge Management</title>
      <path
         fill="none"
         stroke="#bbbbbb"
         d="m 249.09,-74.17 c 4.67,-41.94 13.56,-121.85 17.6,-158.14"
         id="path505" />
      <polygon
         fill="#bbbbbb"
         stroke="#bbbbbb"
         points="248.57,-69.54 249.1,-74.23 248.57,-69.54 245.96,-74.58 248.32,-67.28 252.23,-73.89 "
         id="polygon507" />
    </g>
    <g
       id="edge3"
       class="edge"
       transform="translate(-6.6110731,1885.8459)">
      <title
         id="title510">Documentation-&gt;Personal</title>
      <path
         fill="none"
         stroke="#bbbbbb"
         d="m 309.38,-47.05 c 19.4,0.07 40.51,0.14 59.04,0.2"
         id="path512" />
      <polygon
         fill="#bbbbbb"
         stroke="#bbbbbb"
         points="304.68,-47.06 309.4,-47.05 304.68,-47.06 309.41,-50.2 302.4,-47.07 309.39,-43.9 "
         id="polygon514" />
    </g>
    <g
       id="edge6"
       class="edge"
       transform="translate(-6.6110731,1885.8459)">
      <title
         id="title517">Documentation-&gt;Operating Systems</title>
      <path
         fill="none"
         stroke="#bbbbbb"
         d="m 183.46,-36.87 c -18.32,3.03 -38.2,6.33 -56,9.28"
         id="path519" />
      <polygon
         fill="#bbbbbb"
         stroke="#bbbbbb"
         points="187.76,-37.59 183.1,-36.81 187.76,-37.59 183.62,-33.71 190.01,-37.96 182.59,-39.92 "
         id="polygon521" />
    </g>
    <g
       id="edge4"
       class="edge"
       transform="translate(-6.6110731,1885.8459)">
      <title
         id="title524">Documentation-&gt;Programming</title>
      <path
         fill="none"
         stroke="#bbbbbb"
         d="m 212.36,-70.91 c -34.7,-24.33 -88.07,-61.74 -120.05,-84.17"
         id="path526" />
      <polygon
         fill="#bbbbbb"
         stroke="#bbbbbb"
         points="216.17,-68.24 212.31,-70.95 216.17,-68.24 210.5,-68.37 218.04,-66.93 214.11,-73.52 "
         id="polygon528" />
    </g>
    <text
       x="111.59895"
       y="1516.2458"
       dy="2"
       font-weight="900"
       font-family="Arial, Helvetica, sans-serif"
       font-size="14px"
       id="text532">Top</text>
    <text
       x="-46.992645"
       y="1534.3855"
       dy="2"
       font-family="Arial, Helvetica, sans-serif"
       font-size="14px"
       id="text534">note: Includes my work in progress and published.</text>
    <text
       x="-49.871857"
       y="1960.0879"
       dy="2"
       font-family="Arial, Helvetica, sans-serif"
       font-size="14px"
       id="text536">Papers, documentation, and demonstrations of tools and ideas that help people create</text>
    <text
       x="-49.152054"
       y="1974.6887"
       dy="2"
       font-family="Arial, Helvetica, sans-serif"
       font-size="14px"
       id="text538">maps and organize knowledge without servers or admins.</text>
    <a
       font-family="Arial, Helvetica, sans-serif"
       style="font-size:14px"
       xlink:href="#Top"
       xlink:title="Top"
       id="a542"
       transform="translate(-13.751073,1551.1458)">
      <text
         x="-33.961376"
         y="18.200001"
         id="text540">Top</text>
    </a>
  </g>
</svg>
